# xmcd
#
# Track frame offsets: 
#        150
#        20635
#        36925
#        50887
#        69545
#        83602
#        100447
#        119152
#        132790
#        148192
#        161227
#        180032
#
# Disc length: 2676 seconds
#
# Revision: 0
# Processed by: cddbd v1.5.1PL0 Copyright (c) Steve Scherf et al.
# Submitted via: ExactAudioCopy v0.95a3
#
DISCID=ae0a720c
DTITLE=Bob Freedman - The Truckstop On Highway 99
DYEAR=2002
DGENRE=Country
TTITLE0=Somebody Call
TTITLE1=The Truckstop On Highway 99
TTITLE2=Lorianne
TTITLE3=I Wish You Could See Me Now
TTITLE4=Take It As It Goes
TTITLE5=Love Starved
TTITLE6=Just Give Back My Heart
TTITLE7=Cold Pizza, Warm Beer
TTITLE8=What Am I Gonna Do About You?
TTITLE9=My Baby
TTITLE10=Counting The Dents
TTITLE11=Golden Gate Rag
EXTD=
EXTT0=
EXTT1=
EXTT2=
EXTT3=
EXTT4=
EXTT5=
EXTT6=
EXTT7=
EXTT8=
EXTT9=
EXTT10=
EXTT11=
PLAYORDER=
